<?xml version="1.0" encoding="utf-8"?>
<!-- Generator: Adobe Illustrator 24.2.0, SVG Export Plug-In . SVG Version: 6.00 Build 0)  -->
<svg version="1.1" id="Layer_1" xmlns="http://www.w3.org/2000/svg" xmlns:xlink="http://www.w3.org/1999/xlink" x="0px" y="0px"
	 viewBox="0 0 1714.83 1714.83" style="enable-background:new 0 0 1714.83 1714.83;" xml:space="preserve">
<style type="text/css">
	.st0{fill:#FFFFFF;}
</style>
<g>
	<g>
		<circle class="st0" cx="683.02" cy="1033.75" r="130.74"/>
		<circle class="st0" cx="588.39" cy="781.14" r="92.58"/>
		<circle class="st0" cx="283.36" cy="1120.14" r="74.74"/>
		<circle class="st0" cx="808.7" cy="1655.73" r="59.1"/>
		<circle class="st0" cx="1665.36" cy="782.05" r="45.35"/>
		<path class="st0" d="M678.84,103.34c0,15.11-12.25,27.36-27.36,27.36c-4.23,0-8.24-0.96-11.81-2.67
			c-9.2-4.41-15.55-13.81-15.55-24.69c0-15.11,12.25-27.36,27.36-27.36S678.84,88.23,678.84,103.34z"/>
		<polygon class="st0" points="644.11,108.75 659.57,95.76 1691.22,744.8 1627.08,806.37 		"/>
		<polygon class="st0" points="765.47,1615.45 1665.36,769.62 1680.65,782.05 848.21,1699.68 		"/>
		<polygon class="st0" points="223.21,1164.5 344.94,1077.8 825.2,1637.54 782.51,1666.56 		"/>
		<polygon class="st0" points="513.77,726.97 650.39,849.9 294.16,1140.65 260.01,1091.14 		"/>
		<polygon class="st0" points="791.64,960.97 552.28,1033.75 552.28,781.14 616.88,744.51 		"/>
	</g>
	<path class="st0" d="M692.08,142.8c0,0-18.35-14.29-35.39-12.6s10.28-26.86,10.28-26.86l10.8-7.59c0,0,4.79,14.46,27.77,28.92
		s-10.87,10.26-10.87,10.26L692.08,142.8z"/>
	<path class="st0" d="M1552.65,753.54c0,0,72.79,53.6,21.18,102.11c-51.61,48.51,18.49,6.11,18.49,6.11l53.05-55.39l-46.36-80.07
		L1552.65,753.54z"/>
	<path class="st0" d="M1596.72,874.58c0,0,37.31-35.12,79.69-48.54s-19.85-54.78-19.85-54.78l-59.84,81.58V874.58z"/>
	<path class="st0" d="M720.97,1516.06c0,0,63.96,84.26,136.26,13.13c72.31-71.13-8.89,95.82-8.89,95.82l-82.88-7.21
		c0,0-52.96-81.96-53.34-83.86S720.97,1516.06,720.97,1516.06z"/>
	<path class="st0" d="M698.34,1591c0,0,34.58,30.18,53.4,80.47c18.82,50.3,38.93-55.57,38.93-55.57l-90.69-45.91L698.34,1591z"/>
	<path class="st0" d="M432.88,1027.43c0,0-69.31,62.16-28.98,119.09c40.33,56.93-91.72-9.85-91.72-9.85l30.36-102.91L432.88,1027.43
		z"/>
	<path class="st0" d="M241.62,1058.14c0,0,66.75-36.4,101.94-86.9c35.19-50.5,18.91,36.23,18.91,36.23l-25.61,50.67l-76.84,11.65
		L241.62,1058.14z"/>
	<path class="st0" d="M707.45,856.69c0,0-15.74-17.98-27.69-90.55s-108.99,12.24-108.99,12.24l95.9,93.91L707.45,856.69z"/>
	<path class="st0" d="M517.88,958.05c0,0,29.56-26.57,34.4,3.88c4.84,30.45,30.74-10.81,30.74-10.81s-8.25-56.06-14.23-56.06
		s-59.19,18.5-59.19,18.5"/>
</g>
</svg>
